Coordinates
version=1
nRows=17
nColumns=40
inDegrees=yes

Units are S.I. units (second, meters, Newtons, ...)
If the header above contains a line with 'inDegrees', this indicates whether rotational values are in degrees (yes) or radians (no).

endheader
time	pelvis_tilt	pelvis_list	pelvis_rotation	pelvis_tx	pelvis_ty	pelvis_tz	hip_flexion_r	hip_adduction_r	hip_rotation_r	knee_angle_r	knee_angle_r_beta	ankle_angle_r	subtalar_angle_r	mtp_angle_r	hip_flexion_l	hip_adduction_l	hip_rotation_l	knee_angle_l	knee_angle_l_beta	ankle_angle_l	subtalar_angle_l	mtp_angle_l	lumbar_extension	lumbar_bending	lumbar_rotation	arm_flex_r	arm_add_r	arm_rot_r	elbow_flex_r	pro_sup_r	wrist_flex_r	wrist_dev_r	arm_flex_l	arm_add_l	arm_rot_l	elbow_flex_l	pro_sup_l	wrist_flex_l	wrist_dev_l
      7.43500000	     15.48469535	     -1.20698760	      3.63302464	     -0.85013591	      0.57736560	      0.28546434	     45.00000012	     -9.99999999	      0.00000000	     60.00014062	      1.04720001	     -4.99999985	      0.00000000	      0.00000000	     45.00000012	     -9.99999999	      0.00000000	     60.00014062	      1.04720001	     -4.99999985	      0.00000000	      0.00000000	    -27.27160025	      3.11718780	     -2.28417315	     -8.16387330	    -32.00191422	     -9.08027570	    120.26741483	     88.16358822	      0.00000000	      0.00000000	     -0.06753170	    -28.23392166	     -4.77700440	    116.30656117	     89.38419260	      0.00000000	      0.00000000
      7.44000000	     15.41853214	     -1.19793097	      3.63873897	     -0.85015753	      0.57721914	      0.28544665	     45.00000012	     -9.99999999	      0.00000000	     60.00014062	      1.04720001	     -4.99999985	      0.00000000	      0.00000000	     45.00000012	     -9.99999999	      0.00000000	     60.00014062	      1.04720001	     -4.99999985	      0.00000000	      0.00000000	    -27.19822725	      3.11113337	     -2.30812497	     -8.15270578	    -31.98556239	     -9.08254922	    120.27651409	     88.14559455	      0.00000000	      0.00000000	     -0.08481562	    -28.23542985	     -4.79873865	    116.32040203	     89.38721471	      0.00000000	      0.00000000
      7.44500000	     15.36292467	     -1.22254733	      3.63926149	     -0.85016502	      0.57710872	      0.28544932	     45.00000012	     -9.99999999	      0.00000000	     60.00014062	      1.04720001	     -4.99999985	      0.00000000	      0.00000000	     45.00000012	     -9.99999999	      0.00000000	     60.00014062	      1.04720001	     -4.99999985	      0.00000000	      0.00000000	    -27.13536795	      3.13221320	     -2.29490078	     -8.16910506	    -31.97947255	     -9.10982184	    120.27848742	     88.17052541	      0.00000000	      0.00000000	     -0.08726807	    -28.22634853	     -4.79635178	    116.30697008	     89.38466877	      0.00000000	      0.00000000
      7.45000000	     15.40139967	     -1.21861423	      3.63241008	     -0.85015190	      0.57716370	      0.28550005	     45.00000012	     -9.99999999	      0.00000000	     60.00014062	      1.04720001	     -4.99999985	      0.00000000	      0.00000000	     45.00000012	     -9.99999999	      0.00000000	     60.00014062	      1.04720001	     -4.99999985	      0.00000000	      0.00000000	    -27.17386747	      3.12482815	     -2.29238447	     -8.15192744	    -31.97926067	     -9.08147522	    120.27928419	     88.14945432	      0.00000000	      0.00000000	     -0.07820547	    -28.23521541	     -4.79988474	    116.29777447	     89.38517263	      0.00000000	      0.00000000
      7.45500000	     15.43511459	     -1.28825221	      3.60341828	     -0.85010364	      0.57722168	      0.28560806	     45.00000012	     -9.99999999	      0.00000000	     60.00014062	      1.04720001	     -4.99999985	      0.00000000	      0.00000000	     45.00000012	     -9.99999999	      0.00000000	     60.00014062	      1.04720001	     -4.99999985	      0.00000000	      0.00000000	    -27.20002853	      3.18160007	     -2.22322904	     -8.16222841	    -31.97639548	     -9.10239998	    120.29224309	     88.18173196	      0.00000000	      0.00000000	     -0.07409759	    -28.22589997	     -4.78130896	    116.31217295	     89.38206403	      0.00000000	      0.00000000
      7.46000000	     15.38914300	     -1.22359175	      3.63314909	     -0.85015549	      0.57711232	      0.28549823	     45.00000012	     -9.99999999	      0.00000000	     60.00014062	      1.04720001	     -4.99999985	      0.00000000	      0.00000000	     45.00000012	     -9.99999999	      0.00000000	     60.00014062	      1.04720001	     -4.99999985	      0.00000000	      0.00000000	    -27.15443987	      3.13392552	     -2.29030241	     -8.14786799	    -31.98371359	     -9.08335087	    120.28131476	     88.17091272	      0.00000000	      0.00000000	     -0.08336803	    -28.23800105	     -4.80446818	    116.29757424	     89.38400082	      0.00000000	      0.00000000
      7.46500000	     15.36588186	     -1.19157078	      3.60395903	     -0.85013864	      0.57705248	      0.28552659	     45.00000012	     -9.99999999	      0.00000000	     60.00014062	      1.04720001	     -4.99999985	      0.00000000	      0.00000000	     45.00000012	     -9.99999999	      0.00000000	     60.00014062	      1.04720001	     -4.99999985	      0.00000000	      0.00000000	    -27.12751931	      3.08886808	     -2.26202086	     -8.19166953	    -31.96270628	     -9.13513466	    120.29490624	     88.16868029	      0.00000000	      0.00000000	     -0.06917540	    -28.24259437	     -4.77036974	    116.28410220	     89.38434878	      0.00000000	      0.00000000
      7.47000000	     15.42292966	     -1.15866315	      3.69748021	     -0.85015992	      0.57719582	      0.28536736	     45.00000012	     -9.99999999	      0.00000000	     60.00014062	      1.04720001	     -4.99999985	      0.00000000	      0.00000000	     45.00000012	     -9.99999999	      0.00000000	     60.00014062	      1.04720001	     -4.99999985	      0.00000000	      0.00000000	    -27.18908858	      3.10453473	     -2.37129660	     -8.15528479	    -31.93883741	     -9.11818135	    120.29021416	     88.05895806	      0.00000000	      0.00000000	     -0.07112518	    -28.25534869	     -4.79899322	    116.26961025	     89.39193743	      0.00000000	      0.00000000
      7.47500000	     15.47722688	     -1.23544071	      3.63092830	     -0.85009430	      0.57729984	      0.28550980	     45.00000012	     -9.99999999	      0.00000000	     60.00014062	      1.04720001	     -4.99999985	      0.00000000	      0.00000000	     45.00000012	     -9.99999999	      0.00000000	     60.00014062	      1.04720001	     -4.99999985	      0.00000000	      0.00000000	    -27.23839491	      3.15107638	     -2.28269725	     -8.14400728	    -31.97493071	     -9.08546972	    120.26580953	     88.14184575	      0.00000000	      0.00000000	     -0.08235362	    -28.23250745	     -4.80195234	    116.28748921	     89.38613334	      0.00000000	      0.00000000
      7.48000000	     15.40176090	     -1.23561050	      3.64386236	     -0.85012225	      0.57713920	      0.28548415	     45.00000012	     -9.99999999	      0.00000000	     60.00014062	      1.04720001	     -4.99999985	      0.00000000	      0.00000000	     45.00000012	     -9.99999999	      0.00000000	     60.00014062	      1.04720001	     -4.99999985	      0.00000000	      0.00000000	    -27.15627691	      3.15622383	     -2.30125897	     -8.14553798	    -31.98765299	     -9.07131294	    120.26804551	     88.18291249	      0.00000000	      0.00000000	     -0.09748103	    -28.23076221	     -4.81416911	    116.28808650	     89.38408061	      0.00000000	      0.00000000
      7.48500000	     15.39672790	     -1.22543622	      3.61061402	     -0.85014735	      0.57714067	      0.28550806	     45.00000012	     -9.99999999	      0.00000000	     60.00014062	      1.04720001	     -4.99999985	      0.00000000	      0.00000000	     45.00000012	     -9.99999999	      0.00000000	     60.00014062	      1.04720001	     -4.99999985	      0.00000000	      0.00000000	    -27.15245423	      3.13298361	     -2.27490994	     -8.13320025	    -31.99717420	     -9.04773371	    120.25648232	     88.17869638	      0.00000000	      0.00000000	     -0.08445521	    -28.22935675	     -4.78892594	    116.28714939	     89.38413102	      0.00000000	      0.00000000
      7.49000000	     15.39280910	     -1.22414626	      3.64010457	     -0.85015837	      0.57713687	      0.28544414	     45.00000012	     -9.99999999	      0.00000000	     60.00014062	      1.04720001	     -4.99999985	      0.00000000	      0.00000000	     45.00000012	     -9.99999999	      0.00000000	     60.00014062	      1.04720001	     -4.99999985	      0.00000000	      0.00000000	    -27.14867253	      3.15235304	     -2.30459979	     -8.13255585	    -31.98252505	     -9.07090723	    120.27111056	     88.18325860	      0.00000000	      0.00000000	     -0.09515568	    -28.22778858	     -4.80564616	    116.27129484	     89.38368770	      0.00000000	      0.00000000
      7.49500000	     15.41097879	     -1.22185203	      3.62552115	     -0.85017094	      0.57719006	      0.28549359	     45.00000012	     -9.99999999	      0.00000000	     60.00014062	      1.04720001	     -4.99999985	      0.00000000	      0.00000000	     45.00000012	     -9.99999999	      0.00000000	     60.00014062	      1.04720001	     -4.99999985	      0.00000000	      0.00000000	    -27.16780604	      3.14106512	     -2.29173988	     -8.11391474	    -31.98667334	     -9.04211450	    120.26775210	     88.17217263	      0.00000000	      0.00000000	     -0.08562920	    -28.23067574	     -4.81044897	    116.25629598	     89.38440407	      0.00000000	      0.00000000
      7.50000000	     15.39537992	     -1.22543157	      3.63848434	     -0.85016071	      0.57714256	      0.28547400	     45.00000012	     -9.99999999	      0.00000000	     60.00014062	      1.04720001	     -4.99999985	      0.00000000	      0.00000000	     45.00000012	     -9.99999999	      0.00000000	     60.00014062	      1.04720001	     -4.99999985	      0.00000000	      0.00000000	    -27.14745459	      3.15136883	     -2.30144993	     -8.12348393	    -31.96094625	     -9.07660260	    120.26561013	     88.18099698	      0.00000000	      0.00000000	     -0.08336530	    -28.21634449	     -4.80783079	    116.26622782	     89.38387150	      0.00000000	      0.00000000
      7.50500000	     15.38955709	     -1.21661040	      3.61514524	     -0.85016073	      0.57712756	      0.28550939	     45.00000012	     -9.99999999	      0.00000000	     60.00014062	      1.04720001	     -4.99999985	      0.00000000	      0.00000000	     45.00000012	     -9.99999999	      0.00000000	     60.00014062	      1.04720001	     -4.99999985	      0.00000000	      0.00000000	    -27.13920548	      3.13645803	     -2.29483502	     -8.10650411	    -31.95231662	     -9.06040957	    120.27754924	     88.18467725	      0.00000000	      0.00000000	     -0.09388740	    -28.22143023	     -4.81518695	    116.24274402	     89.38311995	      0.00000000	      0.00000000
      7.51000000	     15.41897840	     -1.21826555	      3.62089535	     -0.85013546	      0.57717056	      0.28550931	     45.00000012	     -9.99999999	      0.00000000	     60.00014062	      1.04720001	     -4.99999985	      0.00000000	      0.00000000	     45.00000012	     -9.99999999	      0.00000000	     60.00014062	      1.04720001	     -4.99999985	      0.00000000	      0.00000000	    -27.16710406	      3.14218199	     -2.28598297	     -8.12613570	    -31.96915233	     -9.07212400	    120.26855844	     88.18456057	      0.00000000	      0.00000000	     -0.08129350	    -28.21730140	     -4.80072126	    116.25872219	     89.38306946	      0.00000000	      0.00000000
      7.51500000	     15.42233128	     -1.23042759	      3.62169100	     -0.85012804	      0.57714973	      0.28555159	     45.00000012	     -9.99999999	      0.00000000	     60.00014062	      1.04720001	     -4.99999985	      0.00000000	      0.00000000	     45.00000012	     -9.99999999	      0.00000000	     60.00014062	      1.04720001	     -4.99999985	      0.00000000	      0.00000000	    -27.16911518	      3.15224831	     -2.28644086	     -8.11950576	    -31.95066756	     -9.08085597	    120.27098725	     88.18974515	      0.00000000	      0.00000000	     -0.08850868	    -28.21801893	     -4.81881419	    116.26939367	     89.38267915	      0.00000000	      0.00000000
